# Blender 3.6.1 Release Candidate
# www.blender.org
mtllib Cactus4.mtl
o Cactus_2.001
v 2.866436 0.166196 -0.479223
v 2.683046 0.166196 -0.442744
v 2.527575 0.166196 -0.338862
v 2.423692 0.166196 -0.183391
v 2.387213 0.166196 0.000000
v 2.423692 0.166196 0.183391
v 2.527575 0.166196 0.338862
v 2.683046 0.166196 0.442744
v 2.866436 0.166196 0.479223
v 3.049827 0.166196 0.442744
v 3.205298 0.166196 0.338862
v 3.309181 0.166196 0.183391
v 3.345660 0.166196 0.000000
v 3.309181 0.166196 -0.183391
v 3.205298 0.166196 -0.338862
v 3.049827 0.166196 -0.442744
v 2.779898 3.327564 -0.208923
v 2.866436 3.327564 -0.226137
v 2.706534 3.327564 -0.159903
v 2.657514 3.327564 -0.086539
v 2.640300 3.327564 0.000000
v 2.657514 3.327564 0.086539
v 2.706534 3.327564 0.159903
v 2.779898 3.327564 0.208923
v 2.866436 3.327564 0.226137
v 2.952975 3.327564 0.208923
v 3.026339 3.327564 0.159903
v 3.075360 3.327564 0.086539
v 3.092573 3.327564 0.000000
v 3.075360 3.327564 -0.086539
v 3.026339 3.327564 -0.159903
v 2.952975 3.327564 -0.208923
v 3.675954 0.648329 -0.335313
v 3.869987 1.820046 -0.415684
v 3.448923 2.943408 -0.241274
v 3.250712 2.943407 0.000000
v 3.528494 1.820046 0.000000
v 3.592977 0.648329 -0.000000
v 2.352695 0.648329 0.513742
v 2.398291 1.820046 0.468145
v 2.594713 2.943408 0.271724
v 2.283950 2.943407 0.241274
v 1.862886 1.820046 0.415684
v 2.056919 0.648329 0.335313
v 3.380178 0.648329 -0.513742
v 3.334582 1.820046 -0.468145
v 3.138160 2.943408 -0.271724
v 2.531123 0.648329 0.809518
v 2.450752 1.820046 1.003551
v 2.625163 2.943408 0.582487
v 3.201750 0.648329 -0.809518
v 3.282121 1.820046 -1.003551
v 3.107710 2.943408 -0.582487
v 2.866437 0.648329 0.726540
v 2.866436 1.820046 0.662057
v 2.866436 2.943408 0.384275
v 2.531123 0.648329 -0.809518
v 2.450752 1.820046 -1.003551
v 2.625163 2.943408 -0.582487
v 2.866436 2.943407 -0.384275
v 2.866436 1.820046 -0.662057
v 2.866436 0.648329 -0.726540
v 3.201750 0.648329 0.809518
v 3.282121 1.820046 1.003551
v 3.107710 2.943408 0.582487
v 2.352695 0.648329 -0.513742
v 2.398291 1.820046 -0.468145
v 2.594713 2.943408 -0.271724
v 3.380178 0.648329 0.513742
v 3.334582 1.820046 0.468145
v 3.138160 2.943408 0.271724
v 2.056919 0.648329 -0.335313
v 1.862886 1.820046 -0.415684
v 2.283950 2.943408 -0.241274
v 3.675954 0.648329 0.335313
v 3.869987 1.820046 0.415684
v 3.448923 2.943408 0.241274
v 2.139896 0.648329 0.000000
v 2.204379 1.820046 0.000000
v 2.482161 2.943408 0.000000
vn -0.0000 -1.0000 -0.0000
vn -0.0000 1.0000 -0.0000
vn 0.7814 0.3414 0.5223
vn 0.7748 0.2743 0.5696
vn 0.7803 0.4533 0.4309
vn -0.1450 0.2743 0.9506
vn -0.1832 0.3414 0.9219
vn -0.2471 0.4533 0.8564
vn 0.1450 0.2743 -0.9506
vn 0.1832 0.3414 -0.9219
vn 0.2471 0.4533 -0.8564
vn -0.9219 0.3414 0.1832
vn -0.9506 0.2743 0.1450
vn -0.8564 0.4533 0.2471
vn 0.9219 0.3414 -0.1832
vn 0.9506 0.2743 -0.1450
vn 0.8564 0.4533 -0.2471
vn 0.5696 0.2743 0.7748
vn 0.5223 0.3414 0.7814
vn 0.4309 0.4533 0.7803
vn 0.5223 0.3414 -0.7814
vn 0.5696 0.2743 -0.7748
vn 0.4309 0.4533 -0.7803
vn -0.5696 0.2743 -0.7748
vn -0.5223 0.3414 -0.7814
vn -0.4309 0.4533 -0.7803
vn -0.5223 0.3414 0.7814
vn -0.5696 0.2743 0.7748
vn -0.4309 0.4533 0.7803
vn -0.9506 0.2743 -0.1450
vn -0.9219 0.3414 -0.1832
vn -0.8564 0.4533 -0.2471
vn 0.9506 0.2743 0.1450
vn 0.9219 0.3414 0.1832
vn 0.8564 0.4533 0.2471
vn -0.1832 0.3414 -0.9219
vn -0.1450 0.2743 -0.9506
vn -0.2471 0.4533 -0.8564
vn 0.1832 0.3414 0.9219
vn 0.1450 0.2743 0.9506
vn 0.2471 0.4533 0.8564
vn -0.7748 0.2743 0.5696
vn -0.7814 0.3414 0.5223
vn -0.7803 0.4533 0.4309
vn 0.7748 0.2743 -0.5696
vn 0.7814 0.3414 -0.5223
vn 0.7803 0.4533 -0.4309
vn -0.7814 0.3414 -0.5223
vn -0.7748 0.2743 -0.5696
vn -0.7803 0.4533 -0.4309
vn -0.8489 -0.5286 -0.0000
vn -0.8464 -0.5271 -0.0759
vn -0.8701 -0.0312 -0.4918
vn -0.8264 0.0714 -0.5585
vn -0.8193 0.0854 -0.5670
vn 0.8464 -0.5271 -0.0759
vn 0.8489 -0.5286 -0.0000
vn 0.8701 -0.0312 -0.4918
vn 0.8193 0.0854 -0.5670
vn 0.8264 0.0714 -0.5585
vn -0.8464 -0.5271 0.0759
vn -0.8701 -0.0312 0.4918
vn -0.8193 0.0854 0.5670
vn -0.8264 0.0714 0.5585
vn 0.6002 -0.5286 0.6002
vn 0.5449 -0.5271 0.6522
vn 0.2675 -0.0312 0.9630
vn 0.1894 0.0714 0.9793
vn 0.1784 0.0854 0.9802
vn -0.6002 -0.5286 -0.6002
vn -0.5449 -0.5271 -0.6522
vn -0.2675 -0.0312 -0.9630
vn -0.1894 0.0714 -0.9793
vn -0.1784 0.0854 -0.9802
vn 0.6522 -0.5271 0.5449
vn 0.9630 -0.0312 0.2675
vn 0.9802 0.0854 0.1784
vn 0.9793 0.0714 0.1894
vn -0.6522 -0.5271 -0.5449
vn -0.9630 -0.0312 -0.2675
vn -0.9802 0.0854 -0.1784
vn -0.9793 0.0714 -0.1894
vn -0.0000 -0.5286 0.8489
vn -0.0759 -0.5271 0.8464
vn -0.4918 -0.0312 0.8701
vn -0.5585 0.0714 0.8264
vn -0.5670 0.0854 0.8193
vn -0.0759 -0.5271 -0.8464
vn -0.0000 -0.5286 -0.8489
vn -0.4918 -0.0312 -0.8701
vn -0.5670 0.0854 -0.8193
vn -0.5585 0.0714 -0.8264
vn 0.0759 -0.5271 -0.8464
vn 0.4918 -0.0312 -0.8701
vn 0.5585 0.0714 -0.8264
vn 0.5670 0.0854 -0.8193
vn 0.0759 -0.5271 0.8464
vn 0.4918 -0.0312 0.8701
vn 0.5670 0.0854 0.8193
vn 0.5585 0.0714 0.8264
vn 0.6002 -0.5286 -0.6002
vn 0.6522 -0.5271 -0.5449
vn 0.9630 -0.0312 -0.2675
vn 0.9793 0.0714 -0.1894
vn 0.9802 0.0854 -0.1784
vn -0.6002 -0.5286 0.6002
vn -0.6522 -0.5271 0.5449
vn -0.9630 -0.0312 0.2675
vn -0.9793 0.0714 0.1894
vn -0.9802 0.0854 0.1784
vn 0.5449 -0.5271 -0.6522
vn 0.2675 -0.0312 -0.9630
vn 0.1784 0.0854 -0.9802
vn 0.1894 0.0714 -0.9793
vn -0.5449 -0.5271 0.6522
vn -0.2675 -0.0312 0.9630
vn -0.1784 0.0854 0.9802
vn -0.1894 0.0714 0.9793
vn 0.8464 -0.5271 0.0759
vn 0.8701 -0.0312 0.4918
vn 0.8264 0.0714 0.5585
vn 0.8193 0.0854 0.5670
vt 0.000000 0.000000
s 1
usemtl Material.004
f 2/1/1 1/1/1 16/1/1 15/1/1 14/1/1 13/1/1 12/1/1 11/1/1 10/1/1 9/1/1 8/1/1 7/1/1 6/1/1 5/1/1 4/1/1 3/1/1
f 17/1/2 19/1/2 20/1/2 21/1/2 22/1/2 23/1/2 24/1/2 25/1/2 26/1/2 27/1/2 28/1/2 29/1/2 30/1/2 31/1/2 32/1/2 18/1/2
f 36/1/3 35/1/4 30/1/5 29/1/5
f 42/1/6 41/1/7 23/1/8 22/1/8
f 35/1/9 47/1/10 31/1/11 30/1/11
f 41/1/12 50/1/13 24/1/14 23/1/14
f 47/1/15 53/1/16 32/1/17 31/1/17
f 50/1/18 56/1/19 25/1/20 24/1/20
f 60/1/21 59/1/22 17/1/23 18/1/23
f 53/1/24 60/1/25 18/1/26 32/1/26
f 56/1/27 65/1/28 26/1/29 25/1/29
f 59/1/30 68/1/31 19/1/32 17/1/32
f 65/1/33 71/1/34 27/1/35 26/1/35
f 68/1/36 74/1/37 20/1/38 19/1/38
f 71/1/39 77/1/40 28/1/41 27/1/41
f 74/1/42 80/1/43 21/1/44 20/1/44
f 77/1/45 36/1/46 29/1/47 28/1/47
f 80/1/48 42/1/49 22/1/50 21/1/50
f 5/1/51 6/1/52 44/1/52 78/1/51
f 78/1/53 44/1/53 43/1/54 79/1/55
f 79/1/55 43/1/54 42/1/49 80/1/48
f 12/1/56 13/1/57 38/1/57 75/1/56
f 75/1/58 38/1/58 37/1/59 76/1/60
f 76/1/60 37/1/59 36/1/46 77/1/45
f 4/1/61 5/1/51 78/1/51 72/1/61
f 72/1/62 78/1/62 79/1/63 73/1/64
f 73/1/64 79/1/63 80/1/43 74/1/42
f 11/1/65 12/1/66 75/1/66 69/1/65
f 69/1/67 75/1/67 76/1/68 70/1/69
f 70/1/69 76/1/68 77/1/40 71/1/39
f 3/1/70 4/1/71 72/1/71 66/1/70
f 66/1/72 72/1/72 73/1/73 67/1/74
f 67/1/74 73/1/73 74/1/37 68/1/36
f 10/1/75 11/1/65 69/1/65 63/1/75
f 63/1/76 69/1/76 70/1/77 64/1/78
f 64/1/78 70/1/77 71/1/34 65/1/33
f 2/1/79 3/1/70 66/1/70 57/1/79
f 57/1/80 66/1/80 67/1/81 58/1/82
f 58/1/82 67/1/81 68/1/31 59/1/30
f 9/1/83 10/1/84 63/1/84 54/1/83
f 54/1/85 63/1/85 64/1/86 55/1/87
f 55/1/87 64/1/86 65/1/28 56/1/27
f 16/1/88 1/1/89 62/1/89 51/1/88
f 51/1/90 62/1/90 61/1/91 52/1/92
f 52/1/92 61/1/91 60/1/25 53/1/24
f 1/1/89 2/1/93 57/1/93 62/1/89
f 62/1/94 57/1/94 58/1/95 61/1/96
f 61/1/96 58/1/95 59/1/22 60/1/21
f 8/1/97 9/1/83 54/1/83 48/1/97
f 48/1/98 54/1/98 55/1/99 49/1/100
f 49/1/100 55/1/99 56/1/19 50/1/18
f 15/1/101 16/1/102 51/1/102 45/1/101
f 45/1/103 51/1/103 52/1/104 46/1/105
f 46/1/105 52/1/104 53/1/16 47/1/15
f 7/1/106 8/1/107 48/1/107 39/1/106
f 39/1/108 48/1/108 49/1/109 40/1/110
f 40/1/110 49/1/109 50/1/13 41/1/12
f 14/1/111 15/1/101 45/1/101 33/1/111
f 33/1/112 45/1/112 46/1/113 34/1/114
f 34/1/114 46/1/113 47/1/10 35/1/9
f 6/1/115 7/1/106 39/1/106 44/1/115
f 44/1/116 39/1/116 40/1/117 43/1/118
f 43/1/118 40/1/117 41/1/7 42/1/6
f 13/1/57 14/1/119 33/1/119 38/1/57
f 38/1/120 33/1/120 34/1/121 37/1/122
f 37/1/122 34/1/121 35/1/4 36/1/3
