# Blender 3.6.1 Release Candidate
# www.blender.org
mtllib Pillar4.mtl
o Plane.001
v -1.000000 0.000000 3.000000
v 1.000000 0.000000 3.000000
v -1.000000 0.000000 1.000000
v 1.000000 0.000000 1.000000
v -0.966711 0.157221 1.897519
v -0.090206 0.157221 2.978595
v 0.990870 0.157221 2.102091
v 0.114365 0.157221 1.021015
v -1.000000 0.157221 1.000000
v -1.000000 0.157221 3.000000
v 1.000000 0.157221 3.000000
v 1.000000 0.157221 1.000000
v -0.674518 0.278095 1.884654
v -0.094825 0.278095 2.694386
v 0.714907 0.278095 2.114693
v 0.135213 0.278095 1.304961
v -0.966711 0.278095 1.897519
v -0.090206 0.278095 2.978595
v 0.990870 0.278095 2.102091
v 0.114365 0.278095 1.021015
v -0.638954 0.278095 2.247420
v -0.426772 0.278095 2.543802
v 0.267941 0.278095 2.658822
v 0.564323 0.278095 2.446639
v 0.679342 0.278095 1.751927
v 0.467160 0.278095 1.455544
v -0.227553 0.278095 1.340525
v -0.523935 0.278095 1.552708
v -0.362329 1.809409 2.532702
v -0.072109 1.797326 2.683619
v 0.499527 1.842098 2.436285
v 0.635604 1.892304 2.104398
v 0.437210 1.805152 1.444319
v 0.148901 1.795945 1.293822
v -0.441720 1.814728 1.541425
v -0.580461 1.818277 1.873208
v -0.550143 1.816710 2.236025
v 0.241790 1.804463 2.648255
v 0.615551 1.843742 1.741025
v -0.173328 1.806830 1.329405
v -0.381210 2.195852 2.532407
v -0.097151 2.181700 2.683465
v 0.475761 2.224620 2.436932
v 0.617609 2.275668 2.105325
v 0.414153 2.189771 1.444225
v 0.126618 2.181769 1.293376
v -0.454889 2.203330 1.540889
v -0.591404 2.201824 1.872710
v -0.563227 2.199455 2.235615
v 0.214208 2.187281 2.648412
v 0.595734 2.227604 1.741544
v -0.190916 2.188653 1.328870
v -0.199743 2.225797 1.955127
v 0.009312 2.236904 2.266118
v 0.072879 2.220290 1.703321
v 0.284985 2.263366 2.014213
v -0.500054 1.796199 2.692201
v -0.119107 1.782855 2.886587
v 0.619426 1.839375 2.567951
v 0.795112 1.898000 2.140551
v 0.538897 1.793758 1.289241
v 0.165804 1.780587 1.095412
v -0.609188 1.800403 1.414815
v -0.792135 1.803904 1.842454
v -0.750024 1.803050 2.309969
v 0.287701 1.793324 2.840938
v 0.768754 1.841327 1.671843
v -0.255417 1.792573 1.141441
v 0.778762 2.237392 2.142086
v -0.757541 2.193213 2.309429
v 0.595439 2.220785 2.569027
v -0.515178 2.183851 2.691843
v 0.143402 2.166579 1.094912
v -0.270542 2.180943 1.140799
v -0.617209 2.190822 1.414123
v -0.797029 2.195107 1.841783
v -0.143331 2.167497 2.886435
v 0.259018 2.175537 2.841237
v 0.748978 2.224099 1.672809
v 0.514464 2.177770 1.289261
v 0.475608 1.285832 1.447505
v 0.481132 0.810823 1.454300
v 0.691999 0.829976 1.750324
v 0.660774 1.319022 1.742889
v -0.624197 0.803496 2.246106
v -0.566139 1.284480 2.240583
v 0.725663 0.850591 2.112649
v 0.683753 1.360175 2.105168
v 0.578937 0.830921 2.444862
v 0.549484 1.319813 2.437668
v 0.172319 1.275623 1.297883
v 0.147935 0.802514 1.303828
v -0.214921 0.802471 1.339400
v -0.169389 1.279881 1.333984
v -0.361377 1.283367 2.536619
v -0.411092 0.803941 2.542406
v -0.049342 1.279073 2.686796
v -0.078540 0.804233 2.692936
v 0.285119 0.812370 2.657292
v 0.283475 1.288064 2.650620
v -0.455444 1.282393 1.546255
v -0.510921 0.802655 1.551549
v -0.660735 0.803026 1.883427
v -0.602102 1.283789 1.878056
v 0.479052 1.231895 1.448241
v 0.665800 1.263874 1.743484
v -0.571864 1.228881 2.241341
v 0.689442 1.303259 2.105635
v 0.554523 1.264835 2.438197
v 0.173303 1.221580 1.298733
v -0.171908 1.225051 1.334774
v -0.364213 1.228387 2.537436
v -0.049091 1.225114 2.687538
v 0.286567 1.234304 2.651251
v -0.460930 1.226909 1.546992
v -0.608795 1.227997 1.878788
v 0.561606 1.294933 1.787217
v -0.439961 1.268807 2.194497
v 0.581525 1.329402 2.083626
v 0.470854 1.295771 2.355798
v -0.118023 1.264394 1.452482
v 0.251912 1.270200 2.530095
v -0.468363 1.268434 1.897830
v 0.408682 1.268163 1.545473
v 0.160202 1.260450 1.422965
v -0.274577 1.267381 2.436751
v -0.020582 1.263428 2.559685
v -0.349613 1.266981 1.626266
v 0.476354 0.752582 1.454726
v 0.143455 0.745353 1.304227
v -0.416145 0.746504 2.542856
v -0.083704 0.746743 2.693396
v -0.515460 0.745466 1.551953
v 0.689988 0.769644 1.750907
v -0.629076 0.746143 2.246541
v 0.725541 0.787295 2.113387
v 0.576585 0.770424 2.445475
v -0.219382 0.745319 1.339798
v 0.279739 0.753839 2.657771
v -0.665427 0.745763 1.883845
v 0.564914 0.801644 1.800296
v -0.486095 0.781617 2.195456
v 0.593483 0.818104 2.089139
v 0.474981 0.802489 2.353916
v -0.160122 0.780668 1.472718
v 0.238961 0.788285 2.523205
v -0.515340 0.781185 1.906364
v 0.394856 0.786882 1.564296
v 0.129133 0.780708 1.444361
v -0.316118 0.782023 2.431636
v -0.050966 0.782287 2.551621
v -0.396020 0.780840 1.641823
vn -0.0000 -1.0000 -0.0000
vn -0.6298 -0.0000 -0.7768
vn 1.0000 -0.0000 -0.0000
vn -1.0000 -0.0000 -0.0000
vn -0.0000 -0.0000 -1.0000
vn -0.0000 -0.0000 1.0000
vn -0.0000 1.0000 -0.0000
vn 0.9937 0.0876 -0.0698
vn 0.6298 -0.0000 0.7768
vn 0.7768 -0.0000 -0.6298
vn -0.7768 -0.0000 0.6298
vn -0.6077 -0.0014 -0.7941
vn -0.9952 0.0359 0.0910
vn 0.9186 0.0863 0.3856
vn 0.6243 0.0579 0.7790
vn -0.1076 -0.0110 -0.9941
vn -0.4473 -0.0041 0.8944
vn 0.1096 0.0122 0.9939
vn -0.9182 0.0269 -0.3951
vn -0.0701 0.9941 0.0831
vn 0.0769 -0.9909 -0.1105
vn 0.0235 -0.9920 0.1241
vn -0.0117 0.9978 0.0654
vn 0.0011 -0.9971 -0.0756
vn 0.0747 -0.9939 -0.0807
vn -0.0291 0.9989 0.0372
vn 0.0171 -0.9978 -0.0645
vn -0.0316 0.9995 0.0077
vn 0.4518 0.0206 -0.8919
vn -0.8335 0.0163 0.5523
vn 0.8468 0.0653 -0.5278
vn 0.0156 0.9957 -0.0915
vn -0.0603 0.9982 -0.0038
vn -0.0138 0.9981 -0.0594
vn -0.0107 0.9917 0.1284
vn -0.0669 0.9973 0.0307
vn -0.0168 0.9930 0.1173
vn -0.0727 0.9966 -0.0376
vn -0.0364 0.9993 -0.0020
vn -0.0044 0.9916 -0.1290
vn -0.0067 0.9982 -0.0589
vn 0.0450 -0.9977 -0.0498
vn -0.0430 0.9988 -0.0215
vn 0.9192 0.0500 0.3907
vn -0.6155 -0.0196 -0.7879
vn -0.9961 -0.0157 0.0869
vn 0.6282 0.0419 0.7769
vn -0.4596 -0.0228 0.8878
vn -0.1096 -0.0068 -0.9940
vn -0.9206 -0.0159 -0.3903
vn 0.1114 0.0075 0.9937
vn 0.8514 0.0498 -0.5221
vn 0.9967 0.0501 -0.0634
vn -0.8408 -0.0238 0.5408
vn 0.4616 0.0275 -0.8867
vn 0.0373 -0.9939 0.1036
vn 0.0066 0.9971 0.0754
vn -0.0047 -0.9973 0.0739
vn 0.1233 0.9891 -0.0805
vn -0.0219 -0.9965 0.0801
vn 0.0758 0.9898 0.1208
vn 0.0609 -0.9975 0.0351
vn -0.0309 0.9941 -0.1040
vn 0.0281 -0.9973 0.0683
vn 0.0095 0.9972 -0.0736
vn 0.0670 -0.9977 -0.0088
vn 0.0220 0.9978 -0.0627
vn 0.1867 -0.9798 -0.0712
vn 0.2198 -0.9751 -0.0295
vn -0.1232 -0.9883 0.0902
vn -0.1025 -0.9926 0.0658
vn 0.0884 -0.9858 -0.1429
vn 0.0885 -0.9895 -0.1143
vn -0.1390 -0.9884 -0.0615
vn -0.1094 -0.9930 -0.0435
vn 0.0372 -0.9860 0.1623
vn 0.0403 -0.9902 0.1335
vn -0.0630 -0.9880 0.1413
vn -0.0652 -0.9923 0.1051
vn -0.0151 -0.9878 -0.1553
vn -0.0259 -0.9923 -0.1207
vn 0.1522 -0.9801 0.1272
vn 0.1930 -0.9764 0.0971
vn 0.2293 -0.9723 0.0444
vn 0.2899 -0.9571 0.0003
vn -0.1508 -0.9884 0.0166
vn -0.1172 -0.9930 0.0130
vn -0.0899 -0.9881 -0.1245
vn -0.0786 -0.9926 -0.0923
vn 0.2315 -0.9723 0.0332
vn 0.2714 -0.9580 0.0923
vn 0.9941 0.0687 -0.0843
vn -0.5861 0.0556 -0.8083
vn -0.9875 0.1222 0.0998
vn 0.9164 0.0688 0.3943
vn 0.6020 0.0280 0.7980
vn -0.1006 -0.0033 -0.9949
vn -0.4203 0.0491 0.9060
vn 0.1021 0.0098 0.9947
vn -0.9073 0.1045 -0.4072
vn 0.4254 -0.0238 -0.9047
vn -0.8111 0.1013 0.5761
vn 0.8289 0.0190 -0.5591
vn 0.2465 0.9612 -0.1241
vn -0.1710 0.9552 -0.2417
vn -0.2805 0.9595 0.0260
vn 0.1840 0.9645 0.1896
vn 0.0959 0.9609 0.2597
vn -0.0207 0.9523 -0.3044
vn -0.1148 0.9575 0.2646
vn 0.0058 0.9584 0.2855
vn -0.2600 0.9583 -0.1189
vn 0.1078 0.9531 -0.2828
vn -0.2321 0.9587 0.1643
vn 0.1882 0.9563 -0.2237
vn 0.9950 -0.0214 -0.0971
vn -0.5823 0.0091 -0.8130
vn -0.9949 0.0203 0.0986
vn 0.9116 -0.0198 0.4107
vn 0.5821 -0.0126 0.8130
vn -0.0976 0.0002 -0.9952
vn -0.4128 0.0115 0.9108
vn 0.0976 -0.0002 0.9952
vn -0.9109 0.0164 -0.4124
vn 0.4126 -0.0091 -0.9109
vn -0.8125 0.0189 0.5827
vn 0.8122 -0.0178 -0.5831
vn 0.2299 0.9704 -0.0735
vn -0.1398 0.9706 -0.1959
vn -0.2330 0.9722 0.0222
vn 0.1924 0.9714 0.1391
vn 0.1022 0.9699 0.2209
vn -0.0243 0.9688 -0.2468
vn -0.1004 0.9703 0.2199
vn 0.0046 0.9694 0.2454
vn -0.2145 0.9718 -0.0979
vn 0.0855 0.9677 -0.2371
vn -0.1924 0.9717 0.1370
vn 0.1712 0.9684 -0.1814
vt 0.000000 0.000000
vt 0.000000 1.000000
vt 1.000000 1.000000
vt 1.000000 0.000000
vt 0.712758 0.712758
vt 0.287242 0.712758
vt 0.287242 0.287242
vt 0.712758 0.287242
vt 0.616450 0.383550
vt 0.616450 0.461183
vt 0.616450 0.461183
vt 0.383550 0.383550
vt 0.383550 0.461183
vt 0.383550 0.538817
vt 0.383550 0.616450
vt 0.538817 0.383550
vt 0.461183 0.383550
vt 0.616450 0.616450
vt 0.616450 0.538817
vt 0.461183 0.616450
vt 0.538817 0.616450
vt 0.383550 0.616450
vt 0.461183 0.383550
vt 0.616450 0.616450
vt 0.538817 0.538817
vt 0.461183 0.538817
vt 0.461183 0.461183
vt 0.538817 0.461183
vt 0.383550 0.616450
vt 0.461183 0.383550
vt 0.383550 0.383550
vt 0.616450 0.383550
vt 0.461183 0.383550
s 0
f 1/1/1 3/2/1 4/3/1 2/4/1
f 8/5/2 5/6/2 17/6/2 20/5/2
f 2/4/3 4/3/3 12/3/3 11/4/3
f 3/2/4 1/1/4 10/1/4 9/2/4
f 4/3/5 3/2/5 9/2/5 12/3/5
f 1/1/6 2/4/6 11/4/6 10/1/6
f 6/7/7 5/6/7 9/2/7 10/1/7
f 7/8/7 6/7/7 10/1/7 11/4/7
f 8/5/7 7/8/7 11/4/7 12/3/7
f 5/6/7 8/5/7 12/3/7 9/2/7
f 88/9/8 84/10/8 39/11/8 32/9/8
f 6/7/9 7/8/9 19/8/9 18/7/9
f 7/8/10 8/5/10 20/5/10 19/8/10
f 5/6/11 6/7/11 18/7/11 17/6/11
f 14/12/7 22/13/7 21/14/7 13/15/7 17/6/7 18/7/7
f 15/9/7 24/16/7 23/17/7 14/12/7 18/7/7 19/8/7
f 16/18/7 26/19/7 25/11/7 15/9/7 19/8/7 20/5/7
f 13/15/7 28/20/7 27/21/7 16/18/7 20/5/7 17/6/7
f 94/21/12 101/20/12 35/20/12 40/21/12
f 104/22/13 86/14/13 37/14/13 36/15/13
f 90/16/14 88/9/14 32/9/14 31/16/14
f 100/23/15 90/16/15 31/16/15 38/17/15
f 91/24/16 94/21/16 40/21/16 34/18/16
f 95/13/17 97/12/17 30/12/17 29/13/17
f 97/12/18 100/23/18 38/17/18 30/12/18
f 101/20/19 104/22/19 36/15/19 35/20/19
f 43/16/20 50/17/20 78/17/20 71/16/20
f 31/16/21 32/9/21 60/9/21 59/16/21
f 32/9/22 39/11/22 67/11/22 60/9/22
f 50/17/23 42/12/23 77/12/23 78/17/23
f 29/13/24 30/12/24 58/12/24 57/13/24
f 38/17/25 31/16/25 59/16/25 66/17/25
f 41/13/26 49/14/26 70/14/26 72/13/26
f 30/12/27 38/17/27 66/17/27 58/12/27
f 49/14/28 48/15/28 76/15/28 70/14/28
f 81/19/29 91/24/29 34/18/29 33/19/29
f 86/14/30 95/13/30 29/13/30 37/14/30
f 84/10/31 81/19/31 33/19/31 39/11/31
f 55/25/32 45/19/32 46/18/32 52/21/32
f 49/14/33 53/26/33 47/20/33 48/15/33
f 53/26/34 55/25/34 52/21/34 47/20/34
f 42/12/35 50/17/35 54/27/35 41/13/35
f 41/13/36 54/27/36 53/26/36 49/14/36
f 50/17/37 43/16/37 56/28/37 54/27/37
f 54/27/38 56/28/38 55/25/38 53/26/38
f 43/16/39 44/9/39 51/11/39 56/28/39
f 56/28/40 51/11/40 45/19/40 55/25/40
f 47/20/41 52/21/41 74/21/41 75/20/41
f 37/14/42 29/13/42 57/13/42 65/14/42
f 48/15/43 47/20/43 75/20/43 76/15/43
f 59/16/44 60/9/44 69/9/44 71/16/44
f 68/21/45 63/20/45 75/20/45 74/21/45
f 64/15/46 65/14/46 70/14/46 76/15/46
f 66/17/47 59/16/47 71/16/47 78/17/47
f 57/13/48 58/12/48 77/12/48 72/13/48
f 62/18/49 68/21/49 74/21/49 73/18/49
f 63/20/50 64/15/50 76/15/50 75/20/50
f 58/12/51 66/17/51 78/17/51 77/12/51
f 67/11/52 61/19/52 80/19/52 79/11/52
f 60/9/53 67/11/53 79/11/53 69/9/53
f 65/14/54 57/13/54 72/13/54 70/14/54
f 61/19/55 62/18/55 73/18/55 80/19/55
f 39/11/56 33/19/56 61/19/56 67/11/56
f 42/12/57 41/13/57 72/13/57 77/12/57
f 33/19/58 34/18/58 62/18/58 61/19/58
f 51/11/59 44/9/59 69/9/59 79/11/59
f 34/18/60 40/21/60 68/21/60 62/18/60
f 44/9/61 43/16/61 71/16/61 69/9/61
f 35/20/62 36/15/62 64/15/62 63/20/62
f 45/19/63 51/11/63 79/11/63 80/19/63
f 40/21/64 35/20/64 63/20/64 68/21/64
f 46/18/65 45/19/65 80/19/65 73/18/65
f 36/15/66 37/14/66 65/14/66 64/15/66
f 52/21/67 46/18/67 73/18/67 74/21/67
f 141/10/68 148/19/68 82/19/68 83/10/68
f 117/10/69 124/19/69 81/19/69 84/10/69
f 142/14/70 150/13/70 96/13/70 85/14/70
f 118/14/71 126/13/71 95/13/71 86/14/71
f 148/19/72 149/24/72 92/24/72 82/19/72
f 124/19/73 125/24/73 91/24/73 81/19/73
f 152/20/74 147/29/74 103/22/74 102/20/74
f 128/20/75 123/22/75 104/22/75 101/20/75
f 151/12/76 146/30/76 99/23/76 98/12/76
f 127/31/77 122/30/77 100/23/77 97/12/77
f 150/13/78 151/12/78 98/12/78 96/13/78
f 126/13/79 127/31/79 97/12/79 95/13/79
f 149/24/80 145/21/80 93/21/80 92/24/80
f 125/24/81 121/21/81 94/21/81 91/24/81
f 146/30/82 144/16/82 89/16/82 99/23/82
f 122/30/83 120/16/83 90/16/83 100/23/83
f 144/16/84 143/9/84 87/9/84 89/16/84
f 120/16/85 119/32/85 88/9/85 90/16/85
f 147/29/86 142/14/86 85/14/86 103/22/86
f 123/22/87 118/14/87 86/14/87 104/22/87
f 145/21/88 152/20/88 102/20/88 93/21/88
f 121/21/89 128/20/89 101/20/89 94/21/89
f 143/9/90 141/10/90 83/10/90 87/9/90
f 119/32/91 117/10/91 84/10/91 88/9/91
f 87/9/92 83/10/92 106/11/92 108/32/92
f 93/21/93 102/20/93 115/20/93 111/21/93
f 103/22/94 85/14/94 107/14/94 116/22/94
f 89/16/95 87/9/95 108/32/95 109/16/95
f 99/23/96 89/16/96 109/16/96 114/33/96
f 92/24/97 93/21/97 111/21/97 110/24/97
f 96/13/98 98/12/98 113/31/98 112/13/98
f 98/12/99 99/23/99 114/33/99 113/31/99
f 102/20/100 103/22/100 116/22/100 115/20/100
f 82/19/101 92/24/101 110/24/101 105/19/101
f 85/14/102 96/13/102 112/13/102 107/14/102
f 83/10/103 82/19/103 105/19/103 106/11/103
f 108/32/104 106/11/104 117/10/104 119/32/104
f 111/21/105 115/20/105 128/20/105 121/21/105
f 116/22/106 107/14/106 118/14/106 123/22/106
f 109/16/107 108/32/107 119/32/107 120/16/107
f 114/33/108 109/16/108 120/16/108 122/30/108
f 110/24/109 111/21/109 121/21/109 125/24/109
f 112/13/110 113/31/110 127/31/110 126/13/110
f 113/31/111 114/33/111 122/30/111 127/31/111
f 115/20/112 116/22/112 123/22/112 128/20/112
f 105/19/113 110/24/113 125/24/113 124/19/113
f 107/14/114 112/13/114 126/13/114 118/14/114
f 106/11/115 105/19/115 124/19/115 117/10/115
f 15/9/116 25/11/116 134/10/116 136/9/116
f 27/21/117 28/20/117 133/20/117 138/21/117
f 13/15/118 21/14/118 135/14/118 140/29/118
f 24/16/119 15/9/119 136/9/119 137/16/119
f 23/17/120 24/16/120 137/16/120 139/33/120
f 16/18/121 27/21/121 138/21/121 130/24/121
f 22/13/122 14/12/122 132/12/122 131/13/122
f 14/12/123 23/17/123 139/33/123 132/12/123
f 28/20/124 13/15/124 140/29/124 133/20/124
f 26/19/125 16/18/125 130/24/125 129/19/125
f 21/14/126 22/13/126 131/13/126 135/14/126
f 25/11/127 26/19/127 129/19/127 134/10/127
f 136/9/128 134/10/128 141/10/128 143/9/128
f 138/21/129 133/20/129 152/20/129 145/21/129
f 140/29/130 135/14/130 142/14/130 147/29/130
f 137/16/131 136/9/131 143/9/131 144/16/131
f 139/33/132 137/16/132 144/16/132 146/30/132
f 130/24/133 138/21/133 145/21/133 149/24/133
f 131/13/134 132/12/134 151/12/134 150/13/134
f 132/12/135 139/33/135 146/30/135 151/12/135
f 133/20/136 140/29/136 147/29/136 152/20/136
f 129/19/137 130/24/137 149/24/137 148/19/137
f 135/14/138 131/13/138 150/13/138 142/14/138
f 134/10/139 129/19/139 148/19/139 141/10/139
