# Blender 3.6.1 Release Candidate
# www.blender.org
mtllib Pillar3.mtl
o Plane
v -1.000000 0.000000 1.000000
v 1.000000 0.000000 1.000000
v -1.000000 0.000000 -1.000000
v 1.000000 0.000000 -1.000000
v -0.947694 0.157221 -0.099036
v -0.099036 0.157221 0.947694
v 0.947694 0.157221 0.099036
v 0.099036 0.157221 -0.947694
v -1.000000 0.157221 -1.000000
v -1.000000 0.157221 1.000000
v 1.000000 0.157221 1.000000
v 1.000000 0.157221 -1.000000
v -0.680584 0.278095 -0.112680
v -0.112680 0.278095 0.680584
v 0.680584 0.278095 0.112680
v 0.112680 0.278095 -0.680584
v -0.947694 0.278095 -0.099036
v -0.099036 0.278095 0.947694
v 0.947694 0.278095 0.099036
v 0.099036 0.278095 -0.947694
v -0.645743 0.278095 0.242708
v -0.437876 0.278095 0.533063
v 0.242708 0.278095 0.645743
v 0.533063 0.278095 0.437876
v 0.645743 0.278095 -0.242708
v 0.437876 0.278095 -0.533063
v -0.242708 0.278095 -0.645743
v -0.533063 0.278095 -0.437876
v -0.437876 2.053786 0.533063
v -0.112680 2.053786 0.680584
v 0.533063 2.053786 0.437876
v 0.680584 2.053786 0.112680
v 0.437876 2.053786 -0.533063
v 0.112680 2.053786 -0.680584
v -0.533063 2.053786 -0.437876
v -0.680584 2.053786 -0.112680
v -0.645743 2.053786 0.242708
v 0.242708 2.053786 0.645743
v 0.645743 2.053786 -0.242708
v -0.242708 2.053786 -0.645743
v -0.437876 2.444749 0.533063
v -0.112680 2.444749 0.680584
v 0.533063 2.444749 0.437876
v 0.680584 2.444749 0.112680
v 0.437876 2.444749 -0.533063
v 0.112680 2.444749 -0.680584
v -0.533063 2.444749 -0.437876
v -0.680584 2.444749 -0.112680
v -0.645743 2.444749 0.242708
v 0.242708 2.444749 0.645743
v 0.645743 2.444749 -0.242708
v -0.242708 2.444749 -0.645743
v -0.275468 2.444749 -0.028787
v -0.028787 2.444749 0.275468
v 0.028787 2.444749 -0.275469
v 0.275469 2.444749 0.028787
v -0.564398 2.053786 0.687089
v -0.145238 2.053786 0.877235
v 0.687089 2.053786 0.564398
v 0.877235 2.053786 0.145238
v 0.564398 2.053786 -0.687089
v 0.145238 2.053786 -0.877235
v -0.687089 2.053786 -0.564398
v -0.877235 2.053786 -0.145238
v -0.832327 2.053786 0.312838
v 0.312838 2.053786 0.832327
v 0.832327 2.053786 -0.312837
v -0.312838 2.053786 -0.832327
v 0.877235 2.444749 0.145238
v -0.832327 2.444749 0.312838
v 0.687089 2.444749 0.564398
v -0.564398 2.444749 0.687089
v 0.145238 2.444749 -0.877235
v -0.312838 2.444749 -0.832327
v -0.687089 2.444749 -0.564398
v -0.877235 2.444749 -0.145238
v -0.145238 2.444749 0.877235
v 0.312838 2.444749 0.832327
v 0.832327 2.444749 -0.312837
v 0.564398 2.444749 -0.687089
v 0.437876 1.461889 -0.533063
v 0.437876 0.869992 -0.533063
v 0.645743 0.869992 -0.242708
v 0.645743 1.461889 -0.242708
v -0.645743 0.869992 0.242708
v -0.645743 1.461889 0.242708
v 0.680584 0.869992 0.112680
v 0.680584 1.461889 0.112680
v 0.533063 0.869992 0.437876
v 0.533063 1.461889 0.437876
v 0.112680 1.461889 -0.680584
v 0.112680 0.869992 -0.680584
v -0.242708 0.869992 -0.645743
v -0.242708 1.461889 -0.645743
v -0.437876 1.461889 0.533063
v -0.437876 0.869992 0.533063
v -0.112680 1.461889 0.680584
v -0.112680 0.869992 0.680584
v 0.242708 0.869992 0.645743
v 0.242708 1.461889 0.645743
v -0.533063 1.461889 -0.437876
v -0.533063 0.869992 -0.437876
v -0.680584 0.869992 -0.112680
v -0.680584 1.461889 -0.112680
v 0.437876 1.394595 -0.533063
v 0.645743 1.394595 -0.242708
v -0.645743 1.394595 0.242708
v 0.680584 1.394595 0.112680
v 0.533063 1.394595 0.437876
v 0.112680 1.394595 -0.680584
v -0.242708 1.394595 -0.645743
v -0.437876 1.394595 0.533063
v -0.112680 1.394595 0.680584
v 0.242708 1.394595 0.645743
v -0.533063 1.394595 -0.437876
v -0.680584 1.394595 -0.112680
v 0.528491 1.428242 -0.198638
v -0.528491 1.428242 0.198638
v 0.557005 1.428242 0.092220
v 0.436271 1.428242 0.358367
v -0.198638 1.428242 -0.528491
v 0.198638 1.428242 0.528491
v -0.557005 1.428242 -0.092220
v 0.358367 1.428242 -0.436271
v 0.092220 1.428242 -0.557005
v -0.358367 1.428242 0.436271
v -0.092220 1.428242 0.557005
v -0.436271 1.428242 -0.358367
v 0.437876 0.800357 -0.533063
v 0.112680 0.800357 -0.680584
v -0.437876 0.800357 0.533063
v -0.112680 0.800357 0.680584
v -0.533063 0.800357 -0.437876
v 0.645743 0.800357 -0.242708
v -0.645743 0.800357 0.242708
v 0.680584 0.800357 0.112680
v 0.533063 0.800357 0.437876
v -0.242708 0.800357 -0.645743
v 0.242708 0.800357 0.645743
v -0.680584 0.800357 -0.112680
v 0.514741 0.835174 -0.193470
v -0.514741 0.835174 0.193470
v 0.542514 0.835174 0.089821
v 0.424920 0.835174 0.349044
v -0.193470 0.835174 -0.514741
v 0.193470 0.835174 0.514741
v -0.542514 0.835174 -0.089821
v 0.349044 0.835174 -0.424920
v 0.089821 0.835174 -0.542514
v -0.349044 0.835174 0.424920
v -0.089821 0.835174 0.542514
v -0.424920 0.835174 -0.349044
vn -0.0000 -1.0000 -0.0000
vn -0.6298 -0.0000 -0.7768
vn 1.0000 -0.0000 -0.0000
vn -1.0000 -0.0000 -0.0000
vn -0.0000 -0.0000 -1.0000
vn -0.0000 -0.0000 1.0000
vn -0.0000 1.0000 -0.0000
vn 0.9952 -0.0000 -0.0976
vn 0.6298 -0.0000 0.7768
vn 0.7768 -0.0000 -0.6298
vn -0.7768 -0.0000 0.6298
vn -0.5821 -0.0000 -0.8131
vn -0.9952 -0.0000 0.0976
vn 0.9107 -0.0000 0.4131
vn 0.5821 -0.0000 0.8131
vn -0.0976 -0.0000 -0.9952
vn -0.4131 -0.0000 0.9107
vn 0.0976 -0.0000 0.9952
vn -0.9107 -0.0000 -0.4131
vn 0.4131 -0.0000 -0.9107
vn -0.8131 -0.0000 0.5821
vn 0.8131 -0.0000 -0.5821
vn 0.2028 -0.9684 -0.1452
vn 0.2179 -0.9634 -0.1560
vn -0.2028 -0.9684 0.1452
vn -0.2179 -0.9634 0.1560
vn 0.1030 -0.9684 -0.2271
vn 0.1107 -0.9634 -0.2440
vn -0.2271 -0.9684 -0.1030
vn -0.2440 -0.9634 -0.1107
vn 0.0243 -0.9684 0.2482
vn 0.0261 -0.9634 0.2666
vn -0.1030 -0.9684 0.2271
vn -0.1107 -0.9634 0.2440
vn -0.0243 -0.9684 -0.2482
vn -0.0261 -0.9634 -0.2666
vn 0.1452 -0.9684 0.2028
vn 0.1560 -0.9634 0.2179
vn 0.2271 -0.9684 0.1030
vn 0.2440 -0.9634 0.1107
vn -0.2482 -0.9684 0.0243
vn -0.2666 -0.9634 0.0261
vn -0.1452 -0.9684 -0.2028
vn -0.1560 -0.9634 -0.2179
vn 0.2482 -0.9684 -0.0243
vn 0.2666 -0.9634 -0.0261
vn 0.2666 0.9634 -0.0261
vn -0.1560 0.9634 -0.2179
vn -0.2666 0.9634 0.0261
vn 0.2440 0.9634 0.1107
vn 0.1560 0.9634 0.2179
vn -0.0261 0.9634 -0.2666
vn -0.1107 0.9634 0.2440
vn 0.0261 0.9634 0.2666
vn -0.2440 0.9634 -0.1107
vn 0.1107 0.9634 -0.2440
vn -0.2179 0.9634 0.1560
vn 0.2179 0.9634 -0.1560
vn 0.2482 0.9684 -0.0243
vn -0.1452 0.9684 -0.2028
vn -0.2482 0.9684 0.0243
vn 0.2271 0.9684 0.1030
vn 0.1452 0.9684 0.2028
vn -0.0243 0.9684 -0.2482
vn -0.1030 0.9684 0.2271
vn 0.0243 0.9684 0.2482
vn -0.2271 0.9684 -0.1030
vn 0.1030 0.9684 -0.2271
vn -0.2028 0.9684 0.1452
vn 0.2028 0.9684 -0.1452
vt 0.000000 0.000000
vt 0.000000 1.000000
vt 1.000000 1.000000
vt 1.000000 0.000000
vt 0.712758 0.712758
vt 0.287242 0.712758
vt 0.287242 0.287242
vt 0.712758 0.287242
vt 0.616450 0.383550
vt 0.616450 0.461183
vt 0.616450 0.461183
vt 0.383550 0.383550
vt 0.383550 0.461183
vt 0.383550 0.538817
vt 0.383550 0.616450
vt 0.538817 0.383550
vt 0.461183 0.383550
vt 0.616450 0.616450
vt 0.616450 0.538817
vt 0.461183 0.616450
vt 0.538817 0.616450
vt 0.383550 0.616450
vt 0.461183 0.383550
vt 0.616450 0.616450
vt 0.538817 0.538817
vt 0.461183 0.538817
vt 0.461183 0.461183
vt 0.538817 0.461183
vt 0.383550 0.616450
vt 0.461183 0.383550
vt 0.383550 0.383550
vt 0.616450 0.383550
vt 0.461183 0.383550
s 0
f 1/1/1 3/2/1 4/3/1 2/4/1
f 8/5/2 5/6/2 17/6/2 20/5/2
f 2/4/3 4/3/3 12/3/3 11/4/3
f 3/2/4 1/1/4 10/1/4 9/2/4
f 4/3/5 3/2/5 9/2/5 12/3/5
f 1/1/6 2/4/6 11/4/6 10/1/6
f 6/7/7 5/6/7 9/2/7 10/1/7
f 7/8/7 6/7/7 10/1/7 11/4/7
f 8/5/7 7/8/7 11/4/7 12/3/7
f 5/6/7 8/5/7 12/3/7 9/2/7
f 88/9/8 84/10/8 39/11/8 32/9/8
f 6/7/9 7/8/9 19/8/9 18/7/9
f 7/8/10 8/5/10 20/5/10 19/8/10
f 5/6/11 6/7/11 18/7/11 17/6/11
f 14/12/7 22/13/7 21/14/7 13/15/7 17/6/7 18/7/7
f 15/9/7 24/16/7 23/17/7 14/12/7 18/7/7 19/8/7
f 16/18/7 26/19/7 25/11/7 15/9/7 19/8/7 20/5/7
f 13/15/7 28/20/7 27/21/7 16/18/7 20/5/7 17/6/7
f 94/21/12 101/20/12 35/20/12 40/21/12
f 104/22/13 86/14/13 37/14/13 36/15/13
f 90/16/14 88/9/14 32/9/14 31/16/14
f 100/23/15 90/16/15 31/16/15 38/17/15
f 91/24/16 94/21/16 40/21/16 34/18/16
f 95/13/17 97/12/17 30/12/17 29/13/17
f 97/12/18 100/23/18 38/17/18 30/12/18
f 101/20/19 104/22/19 36/15/19 35/20/19
f 43/16/7 50/17/7 78/17/7 71/16/7
f 31/16/1 32/9/1 60/9/1 59/16/1
f 32/9/1 39/11/1 67/11/1 60/9/1
f 50/17/7 42/12/7 77/12/7 78/17/7
f 29/13/1 30/12/1 58/12/1 57/13/1
f 38/17/1 31/16/1 59/16/1 66/17/1
f 41/13/7 49/14/7 70/14/7 72/13/7
f 30/12/1 38/17/1 66/17/1 58/12/1
f 49/14/7 48/15/7 76/15/7 70/14/7
f 81/19/20 91/24/20 34/18/20 33/19/20
f 86/14/21 95/13/21 29/13/21 37/14/21
f 84/10/22 81/19/22 33/19/22 39/11/22
f 55/25/7 45/19/7 46/18/7 52/21/7
f 49/14/7 53/26/7 47/20/7 48/15/7
f 53/26/7 55/25/7 52/21/7 47/20/7
f 42/12/7 50/17/7 54/27/7 41/13/7
f 41/13/7 54/27/7 53/26/7 49/14/7
f 50/17/7 43/16/7 56/28/7 54/27/7
f 54/27/7 56/28/7 55/25/7 53/26/7
f 43/16/7 44/9/7 51/11/7 56/28/7
f 56/28/7 51/11/7 45/19/7 55/25/7
f 47/20/7 52/21/7 74/21/7 75/20/7
f 37/14/1 29/13/1 57/13/1 65/14/1
f 48/15/7 47/20/7 75/20/7 76/15/7
f 59/16/14 60/9/14 69/9/14 71/16/14
f 68/21/12 63/20/12 75/20/12 74/21/12
f 64/15/13 65/14/13 70/14/13 76/15/13
f 66/17/15 59/16/15 71/16/15 78/17/15
f 57/13/17 58/12/17 77/12/17 72/13/17
f 62/18/16 68/21/16 74/21/16 73/18/16
f 63/20/19 64/15/19 76/15/19 75/20/19
f 58/12/18 66/17/18 78/17/18 77/12/18
f 67/11/22 61/19/22 80/19/22 79/11/22
f 60/9/8 67/11/8 79/11/8 69/9/8
f 65/14/21 57/13/21 72/13/21 70/14/21
f 61/19/20 62/18/20 73/18/20 80/19/20
f 39/11/1 33/19/1 61/19/1 67/11/1
f 42/12/7 41/13/7 72/13/7 77/12/7
f 33/19/1 34/18/1 62/18/1 61/19/1
f 51/11/7 44/9/7 69/9/7 79/11/7
f 34/18/1 40/21/1 68/21/1 62/18/1
f 44/9/7 43/16/7 71/16/7 69/9/7
f 35/20/1 36/15/1 64/15/1 63/20/1
f 45/19/7 51/11/7 79/11/7 80/19/7
f 40/21/1 35/20/1 63/20/1 68/21/1
f 46/18/7 45/19/7 80/19/7 73/18/7
f 36/15/1 37/14/1 65/14/1 64/15/1
f 52/21/7 46/18/7 73/18/7 74/21/7
f 141/10/23 148/19/23 82/19/23 83/10/23
f 117/10/24 124/19/24 81/19/24 84/10/24
f 142/14/25 150/13/25 96/13/25 85/14/25
f 118/14/26 126/13/26 95/13/26 86/14/26
f 148/19/27 149/24/27 92/24/27 82/19/27
f 124/19/28 125/24/28 91/24/28 81/19/28
f 152/20/29 147/29/29 103/22/29 102/20/29
f 128/20/30 123/22/30 104/22/30 101/20/30
f 151/12/31 146/30/31 99/23/31 98/12/31
f 127/31/32 122/30/32 100/23/32 97/12/32
f 150/13/33 151/12/33 98/12/33 96/13/33
f 126/13/34 127/31/34 97/12/34 95/13/34
f 149/24/35 145/21/35 93/21/35 92/24/35
f 125/24/36 121/21/36 94/21/36 91/24/36
f 146/30/37 144/16/37 89/16/37 99/23/37
f 122/30/38 120/16/38 90/16/38 100/23/38
f 144/16/39 143/9/39 87/9/39 89/16/39
f 120/16/40 119/32/40 88/9/40 90/16/40
f 147/29/41 142/14/41 85/14/41 103/22/41
f 123/22/42 118/14/42 86/14/42 104/22/42
f 145/21/43 152/20/43 102/20/43 93/21/43
f 121/21/44 128/20/44 101/20/44 94/21/44
f 143/9/45 141/10/45 83/10/45 87/9/45
f 119/32/46 117/10/46 84/10/46 88/9/46
f 87/9/8 83/10/8 106/11/8 108/32/8
f 93/21/12 102/20/12 115/20/12 111/21/12
f 103/22/13 85/14/13 107/14/13 116/22/13
f 89/16/14 87/9/14 108/32/14 109/16/14
f 99/23/15 89/16/15 109/16/15 114/33/15
f 92/24/16 93/21/16 111/21/16 110/24/16
f 96/13/17 98/12/17 113/31/17 112/13/17
f 98/12/18 99/23/18 114/33/18 113/31/18
f 102/20/19 103/22/19 116/22/19 115/20/19
f 82/19/20 92/24/20 110/24/20 105/19/20
f 85/14/21 96/13/21 112/13/21 107/14/21
f 83/10/22 82/19/22 105/19/22 106/11/22
f 108/32/47 106/11/47 117/10/47 119/32/47
f 111/21/48 115/20/48 128/20/48 121/21/48
f 116/22/49 107/14/49 118/14/49 123/22/49
f 109/16/50 108/32/50 119/32/50 120/16/50
f 114/33/51 109/16/51 120/16/51 122/30/51
f 110/24/52 111/21/52 121/21/52 125/24/52
f 112/13/53 113/31/53 127/31/53 126/13/53
f 113/31/54 114/33/54 122/30/54 127/31/54
f 115/20/55 116/22/55 123/22/55 128/20/55
f 105/19/56 110/24/56 125/24/56 124/19/56
f 107/14/57 112/13/57 126/13/57 118/14/57
f 106/11/58 105/19/58 124/19/58 117/10/58
f 15/9/8 25/11/8 134/10/8 136/9/8
f 27/21/12 28/20/12 133/20/12 138/21/12
f 13/15/13 21/14/13 135/14/13 140/29/13
f 24/16/14 15/9/14 136/9/14 137/16/14
f 23/17/15 24/16/15 137/16/15 139/33/15
f 16/18/16 27/21/16 138/21/16 130/24/16
f 22/13/17 14/12/17 132/12/17 131/13/17
f 14/12/18 23/17/18 139/33/18 132/12/18
f 28/20/19 13/15/19 140/29/19 133/20/19
f 26/19/20 16/18/20 130/24/20 129/19/20
f 21/14/21 22/13/21 131/13/21 135/14/21
f 25/11/22 26/19/22 129/19/22 134/10/22
f 136/9/59 134/10/59 141/10/59 143/9/59
f 138/21/60 133/20/60 152/20/60 145/21/60
f 140/29/61 135/14/61 142/14/61 147/29/61
f 137/16/62 136/9/62 143/9/62 144/16/62
f 139/33/63 137/16/63 144/16/63 146/30/63
f 130/24/64 138/21/64 145/21/64 149/24/64
f 131/13/65 132/12/65 151/12/65 150/13/65
f 132/12/66 139/33/66 146/30/66 151/12/66
f 133/20/67 140/29/67 147/29/67 152/20/67
f 129/19/68 130/24/68 149/24/68 148/19/68
f 135/14/69 131/13/69 150/13/69 142/14/69
f 134/10/70 129/19/70 148/19/70 141/10/70
